<?xml version="1.0" encoding="utf-8"?>
<!-- Generator: Adobe Illustrator 19.0.0, SVG Export Plug-In . SVG Version: 6.00 Build 0)  -->
<svg version="1.1" id="Camada_1" xmlns="http://www.w3.org/2000/svg" xmlns:xlink="http://www.w3.org/1999/xlink" x="0px" y="0px"
	 viewBox="0 0 80.8 75.4" style="enable-background:new 0 0 80.8 75.4;" xml:space="preserve">
<style type="text/css">
	.st0{fill:#FFFFFF;}
</style>
<g id="XMLID_2_">
	<g id="XMLID_7_">
		<path id="XMLID_8_" class="st0" d="M75.7,38.8c-0.7,0-1.3-0.3-1.7-1L63.4,20.5L40.7,6.3L18,20.5L7.4,37.8c-0.6,1-1.8,1.3-2.8,0.7
			c-1-0.6-1.3-1.8-0.7-2.8l10.9-17.7c0.2-0.3,0.4-0.5,0.7-0.7l24-15C39.8,2.1,40.2,2,40.5,2h0.3c0.4,0,0.8,0.1,1.1,0.3l24,15
			c0.3,0.2,0.5,0.4,0.7,0.7l10.9,17.7c0.6,1,0.3,2.2-0.7,2.8C76.5,38.7,76.1,38.8,75.7,38.8z"/>
	</g>
	<g id="XMLID_5_">
		<path id="XMLID_6_" class="st0" d="M67,73.9H48.2c-1.1,0-2-0.9-2-2V51.4h-11v20.5c0,1.1-0.9,2-2,2H14.4c-1.1,0-2-0.9-2-2V23.6
			c0-1.1,0.9-2,2-2s2,0.9,2,2v46.2h14.7V49.3c0-1.1,0.9-2,2-2h15c1.1,0,2,0.9,2,2v20.5H65V23.6c0-1.1,0.9-2,2-2s2,0.9,2,2v48.2
			C69,73,68.1,73.9,67,73.9z"/>
	</g>
	<g id="XMLID_3_">
		<path id="XMLID_4_" class="st0" d="M47,25.7H34.4c-1.1,0-2-0.9-2-2s0.9-2,2-2H47c1.1,0,2,0.9,2,2S48.1,25.7,47,25.7z"/>
	</g>
</g>
</svg>
