<?xml version="1.0" encoding="utf-8"?>
<!-- Generator: Adobe Illustrator 19.0.0, SVG Export Plug-In . SVG Version: 6.00 Build 0)  -->
<svg version="1.1" id="Camada_1" xmlns="http://www.w3.org/2000/svg" xmlns:xlink="http://www.w3.org/1999/xlink" x="0px" y="0px"
	 viewBox="0 0 80.8 75.4" style="enable-background:new 0 0 80.8 75.4;" xml:space="preserve">
<style type="text/css">
	.st0{fill:#FFFFFF;}
</style>
<g id="XMLID_2_">
	<g id="XMLID_11_">
		<path id="XMLID_12_" class="st0" d="M5.6,74.2c-1.8,0-3.2-0.5-4.2-1.5c-2.7-2.7-3.6-9,13.1-34.2c9.3-14,20-27.6,22.3-29.8
			c1.9-1.9,4.6-2.9,7.7-2.9c5.3,0,11.3,2.9,16.1,7.7c3.7,3.7,6.3,8.1,7.3,12.4c1.1,4.7,0.2,8.7-2.5,11.4
			C62.3,40.4,19.4,74.2,5.6,74.2z M44.5,10.1c-1.3,0-3.2,0.3-4.6,1.6c-2.1,2.1-12.7,15.6-21.7,29.1C1.5,66,4.5,69.5,4.5,69.5
			c0.1,0.1,0.4,0.2,1.1,0.2c11,0,51.6-30.6,56.7-35.6c1.6-1.6,2-4.2,1.3-7.3c-0.8-3.5-3-7.2-6.1-10.3C53.5,12.6,48.5,10.1,44.5,10.1
			z"/>
	</g>
	<g id="XMLID_9_">
		<path id="XMLID_10_" class="st0" d="M59.9,14.6L59.9,14.6c-1.2,0-2.2-1-2.2-2.2l0-10.2c0-1.2,1-2.2,2.2-2.2l0,0
			c1.2,0,2.2,1,2.2,2.2l0,10.2C62.1,13.6,61.1,14.6,59.9,14.6z"/>
	</g>
	<g id="XMLID_7_">
		<path id="XMLID_8_" class="st0" d="M61.5,16.3c-0.8,0-1.6-0.5-2-1.3c-0.5-1.1,0-2.4,1.1-2.9L76,4.8c1.1-0.5,2.4,0,2.9,1.1
			c0.5,1.1,0,2.4-1.1,2.9L62.4,16C62.1,16.2,61.8,16.3,61.5,16.3z"/>
	</g>
	<g id="XMLID_5_">
		<path id="XMLID_6_" class="st0" d="M41,28.6c-0.6,0-1.1-0.2-1.6-0.7l-6-6c-0.9-0.9-0.9-2.3,0-3.1c0.9-0.9,2.3-0.9,3.1,0l6,6
			c0.9,0.9,0.9,2.3,0,3.1C42.1,28.4,41.6,28.6,41,28.6z"/>
	</g>
	<g id="XMLID_3_">
		<path id="XMLID_4_" class="st0" d="M35,57.3c-0.6,0-1.1-0.2-1.6-0.7L27,50.3c-0.9-0.9-0.9-2.3,0-3.1c0.9-0.9,2.3-0.9,3.1,0
			l6.4,6.4c0.9,0.9,0.9,2.3,0,3.1C36.1,57.1,35.5,57.3,35,57.3z"/>
	</g>
</g>
</svg>
