<?xml version="1.0" encoding="utf-8"?>
<!-- Generator: Adobe Illustrator 19.0.0, SVG Export Plug-In . SVG Version: 6.00 Build 0)  -->
<svg version="1.1" id="Camada_1" xmlns="http://www.w3.org/2000/svg" xmlns:xlink="http://www.w3.org/1999/xlink" x="0px" y="0px"
	 viewBox="0 0 24 21" style="enable-background:new 0 0 24 21;" xml:space="preserve">
<style type="text/css">
	.st0{fill:#FFFFFF;}
</style>
<g>
	<g>
		<path class="st0" d="M8.7,15H3.6l1.8-8.6h5.1l-0.4,1.9H7.4L7.1,9.6h2.6l-0.4,1.9H6.7l-0.3,1.6h2.8L8.7,15z"/>
		<path class="st0" d="M17.9,15h-2.7l-1.7-6h0c-0.1,1.1-0.2,2-0.3,2.4L12.4,15h-2l1.8-8.6h2.7l1.7,5.8h0.1c0.1-0.9,0.2-1.6,0.3-2.2
			l0.8-3.6h2L17.9,15z"/>
	</g>
	<g>
		<path class="st0" d="M23.7,21.6h-24V-0.2h24V21.6z M0.7,20.6h22V0.8h-22V20.6z"/>
	</g>
</g>
</svg>
