<?xml version="1.0" encoding="utf-8"?>
<!-- Generator: Adobe Illustrator 19.0.0, SVG Export Plug-In . SVG Version: 6.00 Build 0)  -->
<svg version="1.1" id="Camada_1" xmlns="http://www.w3.org/2000/svg" xmlns:xlink="http://www.w3.org/1999/xlink" x="0px" y="0px"
	 viewBox="0 0 62.2 76.6" style="enable-background:new 0 0 62.2 76.6;" xml:space="preserve">
<style type="text/css">
	.st0{fill:#FFFFFF;}
</style>
<g id="XMLID_2_">
	<g id="XMLID_13_">
		<path id="XMLID_14_" class="st0" d="M39.4,36.7c-1.6,0-2.9-0.3-3.8-0.9c-2.5-1.7-3.5-6.4-3.5-10.3c-0.1-3.2,0.4-9.3,4.3-15
			C42.8,0.9,57.6,0,58.2,0c1,0,1.8,0.5,2.2,1.5c0.2,0.6,4.9,14.6-1.6,24.2C53.3,33.7,44,36.7,39.4,36.7z M56.7,4.5
			C53,5,44,6.8,39.9,12.9C34.4,21,36.6,31.1,38,32.2c0.1,0,0.5,0.2,1.3,0.2c4,0,11.6-2.8,15.8-9.1C59.3,17.1,57.6,8.2,56.7,4.5z"/>
	</g>
	<g id="XMLID_9_">
		<path id="XMLID_10_" class="st0" d="M21.1,49.2c-4.4,0-12.7-2.6-17.7-9.7c-6.1-8.6-2-21.5-1.9-22.1c0.3-0.9,1.2-1.5,2.1-1.5
			c0.6,0,14.1,0.6,20.2,9.2c3.6,5.1,4.2,10.7,4.2,13.6c0,3.6-0.8,7.9-3.1,9.5C23.9,48.9,22.7,49.2,21.1,49.2z M5.2,20.3
			c-0.8,3.4-2,11.3,1.7,16.6c3.8,5.5,10.6,7.9,14.2,7.9c0.8,0,1.2-0.1,1.3-0.2c1.2-1.1,2.9-10-2.1-17.1C16.5,22.3,8.6,20.8,5.2,20.3
			z"/>
	</g>
	<g id="XMLID_7_">
		<path id="XMLID_8_" class="st0" d="M56.2,76.6c-0.4,0-0.8-0.1-1.1-0.3C49.6,72.9,41.8,71,33.4,71c-8.3,0-16.2,1.9-21.6,5.3
			c-1,0.6-2.3,0.3-3-0.7c-0.6-1-0.3-2.3,0.7-3c6.1-3.8,14.8-6,23.9-6c9.1,0,17.8,2.2,23.9,6c1,0.6,1.3,2,0.7,3
			C57.6,76.3,56.9,76.6,56.2,76.6z"/>
	</g>
	<g id="XMLID_5_">
		<path id="XMLID_6_" class="st0" d="M33.8,69.3c-1.1,0-2-0.8-2.1-2c-2.9-29.6,2.5-34.5,4.3-35.3c1.1-0.5,2.4,0,2.9,1
			c0.5,1,0.1,2.2-0.8,2.8c-0.4,0.4-4.5,5.2-2,31.1c0.1,1.2-0.8,2.2-1.9,2.4C33.9,69.3,33.8,69.3,33.8,69.3z"/>
	</g>
	<g id="XMLID_3_">
		<path id="XMLID_4_" class="st0" d="M32.1,57.9c-0.6,0-1.3-0.3-1.7-0.8l-6.7-8.4c-0.7-0.9-0.6-2.3,0.3-3c0.9-0.7,2.3-0.6,3,0.3
			l6.7,8.4c0.7,0.9,0.6,2.3-0.3,3C33,57.7,32.6,57.9,32.1,57.9z"/>
	</g>
</g>
</svg>
