<?xml version="1.0" encoding="utf-8"?>
<!-- Generator: Adobe Illustrator 19.0.0, SVG Export Plug-In . SVG Version: 6.00 Build 0)  -->
<svg version="1.1" id="Camada_1" xmlns="http://www.w3.org/2000/svg" xmlns:xlink="http://www.w3.org/1999/xlink" x="0px" y="0px"
	 viewBox="0 0 80.8 75.4" style="enable-background:new 0 0 80.8 75.4;" xml:space="preserve">
<style type="text/css">
	.st0{fill:#FFFFFF;}
</style>
<g id="XMLID_2_">
	<g id="XMLID_7_">
		<path id="XMLID_8_" class="st0" d="M24.5,36.8c-1.1,0-1.9-0.9-1.9-1.9V21.6h-4.7c-0.8,0-1.5-0.5-1.8-1.3c-0.3-0.8,0-1.6,0.6-2.1
			L37.3,2.4c0.7-0.5,1.6-0.5,2.3,0l20.6,15.8c0.6,0.5,0.9,1.4,0.6,2.1c-0.3,0.8-1,1.3-1.8,1.3h-4.7v7.7c0,1.1-0.9,1.9-1.9,1.9
			c-1.1,0-1.9-0.9-1.9-1.9v-9.6c0-1.1,0.9-1.9,1.9-1.9h1l-15-11.5l-15,11.5h1c1.1,0,1.9,0.9,1.9,1.9v15.1
			C26.4,35.9,25.5,36.8,24.5,36.8z"/>
	</g>
	<g id="XMLID_5_">
		<path id="XMLID_6_" class="st0" d="M11.3,61.2c-0.4,0-0.8-0.1-1.1-0.4c-0.9-0.6-1-1.8-0.4-2.7C22.5,40.8,42,35.3,56.6,33.8
			C43.4,32.9,24.5,35,4.7,48.3c-0.9,0.6-2.1,0.4-2.6-0.5c-0.6-0.9-0.4-2.1,0.5-2.6C40.8,19.5,76,33.8,76.3,33.9
			c0.9,0.4,1.3,1.3,1.1,2.3c-0.3,0.9-1.1,1.5-2.1,1.4c-0.4-0.1-42-5.3-62.4,22.9C12.5,61,11.9,61.2,11.3,61.2z"/>
	</g>
	<g id="XMLID_3_">
		<path id="XMLID_4_" class="st0" d="M26.6,72.9c-0.3,0-0.6-0.1-0.8-0.2c-0.9-0.5-1.3-1.6-0.9-2.6C38.3,43.4,74.2,35,75.7,34.7
			c1-0.2,2,0.4,2.3,1.4c0.2,1-0.4,2-1.4,2.3c-0.4,0.1-35.7,8.3-48.2,33.4C28,72.5,27.3,72.9,26.6,72.9z"/>
	</g>
</g>
</svg>
