<?xml version="1.0" encoding="utf-8"?>
<!-- Generator: Adobe Illustrator 19.0.0, SVG Export Plug-In . SVG Version: 6.00 Build 0)  -->
<svg version="1.1" id="Camada_1" xmlns="http://www.w3.org/2000/svg" xmlns:xlink="http://www.w3.org/1999/xlink" x="0px" y="0px"
	 viewBox="0 0 80.8 75.4" style="enable-background:new 0 0 80.8 75.4;" xml:space="preserve">
<style type="text/css">
	.st0{fill:#FFFFFF;}
</style>
<g id="XMLID_2_">
	<g id="XMLID_5_">
		<path id="XMLID_6_" class="st0" d="M57.2,71.8H23.6c-1,0-1.8-0.8-1.8-1.8V21.2c0-1,0.8-1.8,1.8-1.8h33.6c1,0,1.8,0.8,1.8,1.8V70
			C59,71,58.2,71.8,57.2,71.8z M25.4,68.2h29.9V23H25.4V68.2z"/>
	</g>
	<g id="XMLID_3_">
		<path id="XMLID_4_" class="st0" d="M57.2,23c-0.6,0-1.2-0.3-1.6-0.9L48.2,9.6C48.1,9.4,48,9,48,8.7V7.2H32.8v1.5
			c0,0.3-0.1,0.6-0.3,0.9l-7.4,12.4c-0.5,0.9-1.6,1.2-2.5,0.6c-0.9-0.5-1.2-1.6-0.6-2.5l7.1-12V5.4c0-1,0.8-1.8,1.8-1.8h18.8
			c1,0,1.8,0.8,1.8,1.8v2.8l7.1,12c0.5,0.9,0.2,2-0.6,2.5C57.8,22.9,57.5,23,57.2,23z"/>
	</g>
</g>
</svg>
