<?xml version="1.0" encoding="utf-8"?>
<!-- Generator: Adobe Illustrator 19.0.0, SVG Export Plug-In . SVG Version: 6.00 Build 0)  -->
<svg version="1.1" id="Camada_1" xmlns="http://www.w3.org/2000/svg" xmlns:xlink="http://www.w3.org/1999/xlink" x="0px" y="0px"
	 viewBox="0 0 287 149" style="enable-background:new 0 0 287 149;" xml:space="preserve">
<style type="text/css">
	.st0{fill:#FDFEFD;}
	.st1{fill:#BABA63;}
	.st2{fill:#DD6C5C;}
</style>
<g id="XMLID_2_">
	<path id="XMLID_33_" class="st0" d="M41.9,52.9c-1.9-1.9-4.1-3.4-6.7-4.5c-5.1-2.2-11.3-2.2-16.4,0c-2.5,1.1-4.8,2.6-6.7,4.5
		c-1.9,1.9-3.4,4.1-4.5,6.7C6.6,62.1,6,64.9,6,67.8v35.9H16V67.8c0-1.5,0.3-3,0.9-4.3c0.6-1.3,1.4-2.5,2.4-3.5c1-1,2.2-1.8,3.5-2.4
		c2.7-1.1,5.9-1.1,8.6,0c1.3,0.6,2.5,1.4,3.5,2.4c1,1,1.8,2.2,2.4,3.5c0.6,1.3,0.9,2.8,0.9,4.3v35.9h9.9V67.8c0-2.9-0.6-5.6-1.7-8.2
		C45.3,57,43.8,54.8,41.9,52.9"/>
	<polygon id="XMLID_32_" class="st0" points="51.6,103.7 87.9,103.7 87.9,93.7 61.5,93.7 61.5,80.5 84.6,80.5 84.6,70.5 61.5,70.5 
		61.5,57.3 87.9,57.3 87.9,47.3 51.6,47.3 	"/>
	<path id="XMLID_29_" class="st0" d="M131.1,59.5c-1.1-2.5-2.6-4.8-4.5-6.7c-1.9-1.9-4.1-3.4-6.7-4.5c-5.2-2.2-11.4-2.2-16.5,0
		c-2.5,1.1-4.8,2.6-6.7,4.5c-1.9,1.9-3.4,4.1-4.5,6.7c-1.1,2.6-1.7,5.3-1.7,8.2v15.7c0,2.9,0.6,5.6,1.7,8.2c1.1,2.5,2.6,4.7,4.5,6.6
		c1.9,1.9,4.1,3.4,6.7,4.5c2.6,1.1,5.3,1.7,8.3,1.7c2.9,0,5.6-0.6,8.2-1.7c2.5-1.1,4.8-2.6,6.7-4.5s3.4-4.1,4.5-6.6
		c1.1-2.5,1.7-5.3,1.7-8.2V67.7C132.7,64.8,132.2,62.1,131.1,59.5 M122.8,67.7v15.7c0,1.5-0.3,3-0.9,4.3c-0.6,1.3-1.4,2.5-2.4,3.5
		c-1,1-2.2,1.8-3.6,2.4c-2.6,1.1-5.9,1.1-8.6,0c-1.3-0.6-2.5-1.4-3.6-2.4c-1-1-1.8-2.2-2.4-3.5c-0.6-1.3-0.9-2.8-0.9-4.3V67.7
		c0-1.5,0.3-3,0.9-4.3c0.6-1.3,1.4-2.5,2.4-3.5c1-1,2.2-1.8,3.5-2.4c1.3-0.6,2.8-0.9,4.3-0.9c1.5,0,3,0.3,4.3,0.9
		c1.3,0.6,2.5,1.4,3.5,2.4c1,1,1.8,2.2,2.4,3.5C122.5,64.7,122.8,66.2,122.8,67.7"/>
	<polygon id="XMLID_28_" class="st0" points="188.9,29.8 193.4,29.8 178.1,64.9 161.4,103.6 157,103.6 140.3,64.9 136.6,56.6 
		141.1,56.6 144.8,64.9 159.3,98.5 173.7,64.9 	"/>
	<rect id="XMLID_27_" x="191.1" y="46.9" class="st0" width="4" height="56.8"/>
	<polygon id="XMLID_26_" class="st0" points="223.3,51.2 223.3,103.6 219.2,103.6 219.2,51.2 202.5,51.2 202.5,47.2 240.1,47.2 
		240.1,51.2 	"/>
	<path id="XMLID_23_" class="st0" d="M245.7,82v21.6h-4.1V66.5c0-2.8,0.5-5.4,1.6-7.9c1.1-2.5,2.5-4.6,4.3-6.4
		c1.8-1.8,4-3.3,6.5-4.3c2.5-1.1,5.1-1.6,7.9-1.6c2.8,0,5.4,0.5,7.9,1.6c2.5,1.1,4.6,2.5,6.4,4.3c1.8,1.8,3.3,4,4.3,6.4
		c1.1,2.5,1.6,5.1,1.6,7.9V78v4v21.6h-4V82H245.7z M278.1,66.5c0-2.2-0.4-4.3-1.3-6.3c-0.9-2-2-3.7-3.5-5.2
		c-1.5-1.5-3.2-2.6-5.2-3.5c-2-0.9-4.1-1.3-6.3-1.3c-2.3,0-4.4,0.4-6.4,1.3c-2,0.9-3.7,2-5.1,3.5c-1.4,1.5-2.6,3.2-3.4,5.2
		c-0.9,2-1.3,4.1-1.3,6.3V78h32.4V66.5z"/>
	<path id="XMLID_20_" class="st1" d="M143,24.7c-3.4-1.3-7.3-1.1-10.2,0.5c-0.8,0.4-1.1,1.4-0.8,2.2c1,3.2,3.7,5.9,7.2,7.2
		c3.5,1.3,7.3,1.1,10.2-0.5c0.8-0.4,1.1-1.4,0.8-2.2C149.1,28.7,146.4,26,143,24.7 M140.5,31.2c-1.8-0.7-3.3-1.9-4.2-3.4
		c1.7-0.5,3.6-0.3,5.4,0.4c1.8,0.7,3.3,1.9,4.2,3.4C144.2,32,142.3,31.9,140.5,31.2"/>
	<path id="XMLID_17_" class="st1" d="M159,28c0.2,0.4,0.6,0.7,0.9,0.8c0.4,0.1,0.8,0.2,1.2,0c3.4-1.1,6.3-4,7.7-7.6
		c1.4-3.7,1.2-7.7-0.6-10.8c-0.4-0.8-1.4-1.1-2.2-0.8c-3.4,1.1-6.3,4-7.7,7.6C157,20.9,157.2,24.9,159,28 M165.7,13.9
		c0.6,1.9,0.4,4-0.3,6.1c-0.8,2-2.2,3.7-3.8,4.7c-0.6-1.9-0.4-4,0.3-6.1C162.7,16.5,164,14.9,165.7,13.9"/>
	<path id="XMLID_14_" class="st1" d="M172.5,29.8l-7.5,19.3L153.5,23c1.5-3.7,1.3-8.1-0.4-12.1c-1.7-3.9-4.8-7-8.5-8.4
		c-0.4-0.2-0.8-0.3-1.2-0.4c-0.9-0.2-1.8,0.2-2.2,1c-2,3.8-2,8.7,0,13.1c1.7,3.9,4.8,7,8.5,8.4l0.6,0.2L163.2,54l-3.7,9.6l-3.1-7
		h-3.9l0.1,0.6l5.3,12l0,0l0.1,0.1l0,0.1l0.1,0.1l0.1,0.1l0.1,0.1l0.1,0.1l0.1,0.1l0.1,0.1l0.1,0.1l0.1,0.1l0.1,0.1l0.1,0.1l0.1,0
		l0.2,0.1l0.2,0.1l0.1,0l0.1,0l0.1,0l0.1,0l0.1,0l0.1,0l0.1,0l0.1,0l0.1,0l0.1,0l0.1,0l0.1,0l0.1,0l0,0l0.1,0l0.1-0.1l0.1-0.1l0.1,0
		l0.1-0.1l0.1,0l0.1-0.1l0.1-0.1l0.1-0.1l0.1-0.1l0.1-0.1l0.1-0.1l0.1-0.1l0-0.1l0.1-0.2l15.2-39.4H172.5z M150.3,20.8
		c-2.5-1.2-4.5-3.4-5.8-6.1c-1.2-2.8-1.5-5.8-0.7-8.4c2.5,1.2,4.5,3.4,5.8,6.1C150.9,15.2,151.1,18.2,150.3,20.8"/>
	<path id="XMLID_13_" class="st2" d="M92.1,145.5c-1,0-2-0.1-2.9-0.4v-4.2c0.6,0.2,1.1,0.3,1.6,0.3c0.7,0,1.2-0.1,1.6-0.4
		c0.4-0.3,0.6-0.7,0.7-1.3l2.7-12.6h-2.3l0.6-2.7l2.6-1.3l0.2-1c0.4-1.8,1.1-3.1,2.1-3.9c1-0.8,2.2-1.2,3.9-1.2
		c0.7,0,1.5,0.1,2.2,0.2c0.7,0.1,1.3,0.3,1.8,0.6l-1.4,3.7c-0.6-0.3-1.2-0.4-1.8-0.4c-0.3,0-0.6,0.1-0.8,0.3
		c-0.2,0.2-0.4,0.4-0.5,0.8l-0.2,1h3l-0.9,4.1h-2.9l-2.9,13.4c-0.4,1.8-1.1,3.1-2.1,4C95.1,145,93.8,145.5,92.1,145.5"/>
	<path id="XMLID_10_" class="st2" d="M116.9,138.9c-2,0-3.5-0.5-4.5-1.6c-1.1-1.1-1.6-2.6-1.6-4.5c0-2,0.4-3.7,1.1-5.3
		c0.7-1.6,1.8-2.8,3.1-3.7c1.3-0.9,2.9-1.3,4.7-1.3c2,0,3.5,0.5,4.5,1.6c1.1,1.1,1.6,2.6,1.6,4.5c0,2-0.4,3.7-1.1,5.3
		c-0.7,1.6-1.8,2.8-3.1,3.7C120.2,138.4,118.6,138.9,116.9,138.9 M119.1,126.5c-0.8,0-1.4,0.6-2,2c-0.5,1.3-0.8,2.8-0.8,4.5
		c0,1.2,0.4,1.9,1.2,1.9c0.8,0,1.4-0.6,2-1.9c0.6-1.3,0.8-2.8,0.8-4.5c0-0.6-0.1-1.1-0.3-1.4C119.7,126.7,119.4,126.5,119.1,126.5"
		/>
	<path id="XMLID_7_" class="st2" d="M140,138.9c-2,0-3.5-0.5-4.5-1.6c-1.1-1.1-1.6-2.6-1.6-4.5c0-2,0.4-3.7,1.1-5.3
		c0.7-1.6,1.8-2.8,3.1-3.7c1.3-0.9,2.9-1.3,4.7-1.3c2,0,3.5,0.5,4.5,1.6c1.1,1.1,1.6,2.6,1.6,4.5c0,2-0.4,3.7-1.1,5.3
		c-0.7,1.6-1.8,2.8-3.1,3.7C143.3,138.4,141.8,138.9,140,138.9 M142.2,126.5c-0.8,0-1.4,0.6-2,2c-0.5,1.3-0.8,2.8-0.8,4.5
		c0,1.2,0.4,1.9,1.2,1.9c0.8,0,1.4-0.6,2-1.9c0.6-1.3,0.8-2.8,0.8-4.5c0-0.6-0.1-1.1-0.3-1.4C142.9,126.7,142.6,126.5,142.2,126.5"
		/>
	<path id="XMLID_4_" class="st2" d="M164,122.4c0.7,0,1.3,0.1,1.8,0.4c0.5,0.3,1,0.9,1.6,1.7h0.1l0-0.5c0.1-1.3,0.2-2.3,0.3-3
		l0.9-4.2h5.5l-4.6,21.8h-4.3l0.1-1.7h-0.1c-0.5,0.7-1.1,1.3-1.7,1.6c-0.6,0.3-1.3,0.4-2.1,0.4c-1.5,0-2.6-0.5-3.4-1.6
		c-0.8-1-1.1-2.5-1.1-4.5c0-1.7,0.3-3.4,1-5.1c0.7-1.7,1.5-3,2.6-3.9C161.6,122.9,162.8,122.4,164,122.4 M163.7,134.5
		c0.5,0,0.9-0.3,1.3-0.8c0.4-0.5,0.8-1.3,1-2.2c0.3-0.9,0.4-1.8,0.4-2.7c0-1.3-0.4-2-1.1-2c-0.5,0-0.9,0.3-1.3,0.8
		c-0.4,0.6-0.8,1.3-1.1,2.2s-0.4,1.8-0.4,2.7C162.5,133.8,162.9,134.5,163.7,134.5"/>
	<path id="XMLID_3_" class="st2" d="M191.4,133.1c0,1.9-0.6,3.3-1.8,4.3c-1.2,1-3,1.5-5.2,1.5c-2.1,0-3.7-0.3-5-0.9v-4.4
		c0.9,0.5,1.7,0.8,2.4,1c0.7,0.2,1.5,0.3,2.2,0.3c0.6,0,1.1-0.1,1.4-0.3c0.3-0.2,0.5-0.4,0.5-0.7c0-0.3-0.1-0.6-0.4-0.8
		c-0.2-0.2-0.9-0.6-1.8-1.2c-1-0.5-1.7-1.2-2.2-1.9c-0.5-0.7-0.7-1.6-0.7-2.6c0-1.6,0.6-2.8,1.7-3.7c1.1-0.9,2.7-1.3,4.8-1.3
		c1,0,2,0.1,2.9,0.4c0.9,0.2,1.7,0.6,2.5,1.1l-1.7,3.5c-0.6-0.4-1.3-0.7-1.9-1c-0.7-0.2-1.2-0.4-1.7-0.4c-0.7,0-1.1,0.3-1.1,1
		c0,0.3,0.1,0.5,0.4,0.7c0.3,0.2,0.8,0.5,1.4,0.8C190.3,129.7,191.4,131.1,191.4,133.1"/>
</g>
</svg>
