<?xml version="1.0" encoding="utf-8"?>
<!-- Generator: Adobe Illustrator 19.0.0, SVG Export Plug-In . SVG Version: 6.00 Build 0)  -->
<svg version="1.1" id="Camada_1" xmlns="http://www.w3.org/2000/svg" xmlns:xlink="http://www.w3.org/1999/xlink" x="0px" y="0px"
	 viewBox="0 0 80.8 75.4" style="enable-background:new 0 0 80.8 75.4;" xml:space="preserve">
<style type="text/css">
	.st0{fill:#FFFFFF;}
</style>
<g id="XMLID_2_">
	<g id="XMLID_13_">
		<path id="XMLID_14_" class="st0" d="M65.9,40.8H50.6c-0.8,0-1.5-0.7-1.5-1.5c0-0.8,0.7-1.5,1.5-1.5h15.3c0.8,0,1.5,0.7,1.5,1.5
			C67.4,40.2,66.7,40.8,65.9,40.8z"/>
	</g>
	<g id="XMLID_11_">
		<path id="XMLID_12_" class="st0" d="M29.2,40.8H14.1c-0.8,0-1.5-0.7-1.5-1.5c0-0.8,0.7-1.5,1.5-1.5h15.1c0.8,0,1.5,0.7,1.5,1.5
			C30.7,40.2,30.1,40.8,29.2,40.8z"/>
	</g>
	<g id="XMLID_9_">
		<path id="XMLID_10_" class="st0" d="M40,54.3c-6.9,0-12.5-5.6-12.5-12.5c0-0.8,0.1-1.7,0.3-2.5c0.2-0.8,0.9-1.3,1.8-1.2
			c0.8,0.2,1.3,1,1.2,1.8c-0.1,0.6-0.2,1.3-0.2,1.9c0,5.2,4.3,9.5,9.5,9.5c5.2,0,9.5-4.3,9.5-9.5c0-0.8-0.1-1.6-0.3-2.3
			c-0.2-0.8,0.3-1.6,1.1-1.8c0.8-0.2,1.6,0.3,1.8,1.1c0.2,1,0.4,2,0.4,3C52.4,48.8,46.8,54.3,40,54.3z"/>
	</g>
	<g id="XMLID_7_">
		<circle id="XMLID_8_" class="st0" cx="36.9" cy="43.2" r="2.8"/>
	</g>
	<g id="XMLID_5_">
		<circle id="XMLID_6_" class="st0" cx="45.5" cy="33.2" r="2.8"/>
	</g>
	<g id="XMLID_3_">
		<circle id="XMLID_4_" class="st0" cx="31" cy="23.9" r="2.8"/>
	</g>
</g>
</svg>
