<?xml version="1.0" encoding="utf-8"?>
<!-- Generator: Adobe Illustrator 19.0.0, SVG Export Plug-In . SVG Version: 6.00 Build 0)  -->
<svg version="1.1" id="Camada_1" xmlns="http://www.w3.org/2000/svg" xmlns:xlink="http://www.w3.org/1999/xlink" x="0px" y="0px"
	 viewBox="0 0 80.8 75.4" style="enable-background:new 0 0 80.8 75.4;" xml:space="preserve">
<style type="text/css">
	.st0{fill:#FFFFFF;}
</style>
<g id="XMLID_2_">
	<g id="XMLID_9_">
		<g id="XMLID_22_">
			<path id="XMLID_23_" class="st0" d="M30.5,64c-2.5,0-4.8-1-6.5-2.7c-3.1-3.1-4.6-13.7-4.9-15.7C19,45,19.2,44.4,19.7,44
				c0.4-0.4,1-0.6,1.6-0.6c2.1,0.3,12.6,1.8,15.7,4.9c1.7,1.7,2.7,4,2.7,6.5c0,2.5-1,4.8-2.7,6.5C35.3,63.1,33,64,30.5,64z
				 M23.4,47.7c0.8,4.4,2.1,9.5,3.4,10.9c1,1,2.3,1.6,3.7,1.6c1.4,0,2.7-0.6,3.7-1.6c1-1,1.6-2.3,1.6-3.7s-0.6-2.7-1.6-3.7
				C32.9,49.7,27.7,48.4,23.4,47.7z"/>
		</g>
		<g id="XMLID_18_">
			<path id="XMLID_19_" class="st0" d="M30.5,43.6c-2.5,0-4.8-1-6.5-2.7c-3.1-3.1-4.6-13.7-4.9-15.7c-0.1-0.6,0.1-1.2,0.6-1.6
				c0.4-0.4,1-0.6,1.6-0.6c2.1,0.3,12.6,1.8,15.7,4.9c1.7,1.7,2.7,4,2.7,6.5c0,2.5-1,4.8-2.7,6.5C35.3,42.6,33,43.6,30.5,43.6z
				 M23.4,27.2c0.8,4.4,2.1,9.5,3.4,10.9c1,1,2.3,1.6,3.7,1.6c1.4,0,2.7-0.6,3.7-1.6c1-1,1.6-2.3,1.6-3.7c0-1.4-0.6-2.7-1.6-3.7
				C32.9,29.3,27.7,28,23.4,27.2z"/>
		</g>
		<g id="XMLID_14_">
			<path id="XMLID_15_" class="st0" d="M50.3,64c-2.5,0-4.8-1-6.5-2.7c-3.6-3.6-3.6-9.4,0-13c3.1-3.1,13.7-4.6,15.7-4.9
				c0.6-0.1,1.2,0.1,1.6,0.6c0.4,0.4,0.6,1,0.6,1.6c-0.3,2.1-1.8,12.6-4.9,15.7C55,63.1,52.7,64,50.3,64z M57.4,47.7
				c-4.4,0.7-9.5,2.1-10.9,3.4c-2.1,2.1-2.1,5.4,0,7.5c1,1,2.3,1.6,3.7,1.6c1.4,0,2.7-0.6,3.7-1.6C55.4,57.2,56.7,52.1,57.4,47.7z"
				/>
		</g>
		<g id="XMLID_10_">
			<path id="XMLID_11_" class="st0" d="M50.3,43.6c-2.5,0-4.8-1-6.5-2.7c-3.6-3.6-3.6-9.4,0-13c3.1-3.1,13.7-4.6,15.7-4.9
				c0.6-0.1,1.2,0.1,1.6,0.6c0.4,0.4,0.6,1,0.6,1.6c-0.3,2.1-1.8,12.6-4.9,15.7C55,42.6,52.7,43.6,50.3,43.6z M57.4,27.2
				c-4.4,0.7-9.5,2.1-10.9,3.4c-2.1,2.1-2.1,5.4,0,7.5c1,1,2.3,1.6,3.7,1.6c1.4,0,2.7-0.6,3.7-1.6C55.4,36.8,56.7,31.6,57.4,27.2z"
				/>
		</g>
	</g>
	<g id="XMLID_5_">
		<path id="XMLID_6_" class="st0" d="M40.4,25.6c-2.5,0-4.8-1-6.5-2.7c-1.7-1.7-2.7-4-2.7-6.5c0-4.4,6.4-12.9,7.7-14.6
			c0.7-1,2.4-1,3.1,0c1.3,1.7,7.7,10.1,7.7,14.6C49.6,21.5,45.5,25.6,40.4,25.6z M40.4,6.3c-2.6,3.6-5.3,8.2-5.3,10.1
			c0,1.4,0.5,2.7,1.6,3.7c1,1,2.3,1.6,3.7,1.6c2.9,0,5.3-2.4,5.3-5.3C45.7,14.5,42.9,9.9,40.4,6.3z"/>
	</g>
	<g id="XMLID_3_">
		<path id="XMLID_4_" class="st0" d="M40.4,73.3c-1.1,0-2-0.9-2-2v-8c0-1.1,0.9-2,2-2s2,0.9,2,2v8C42.3,72.4,41.5,73.3,40.4,73.3z"
			/>
	</g>
</g>
</svg>
