<?xml version="1.0" encoding="utf-8"?>
<!-- Generator: Adobe Illustrator 19.0.0, SVG Export Plug-In . SVG Version: 6.00 Build 0)  -->
<svg version="1.1" id="Camada_1" xmlns="http://www.w3.org/2000/svg" xmlns:xlink="http://www.w3.org/1999/xlink" x="0px" y="0px"
	 viewBox="0 0 80.8 75.4" style="enable-background:new 0 0 80.8 75.4;" xml:space="preserve">
<style type="text/css">
	.st0{fill:#FFFFFF;}
</style>
<g id="XMLID_2_">
	<g id="XMLID_15_">
		<path id="XMLID_16_" class="st0" d="M9.9,51.7c-1.1,0-2.1-0.9-2.1-2.1V30.4c0-1.1,0.9-2.1,2.1-2.1h24.6l6.6-24
			c0.2-0.9,1.1-1.5,2-1.5h24c1.1,0,2.1,0.9,2.1,2.1v28.8c0,1.1-0.9,2.1-2.1,2.1S65,34.9,65,33.7V7H44.7l-6.6,24
			c-0.2,0.9-1.1,1.5-2,1.5H11.9v17.2C11.9,50.8,11,51.7,9.9,51.7z"/>
	</g>
	<g id="XMLID_13_">
		<path id="XMLID_14_" class="st0" d="M39,58H22.3c-1.1,0-2.1-0.9-2.1-2.1c0-1.1,0.9-2.1,2.1-2.1H39c1.1,0,2.1,0.9,2.1,2.1
			C41,57,40.1,58,39,58z"/>
	</g>
	<g id="XMLID_9_">
		<path id="XMLID_10_" class="st0" d="M57.4,71.5c-11.6,0-21.1-9.4-21.1-21.1c0-11.6,9.4-21.1,21.1-21.1c11.6,0,21.1,9.4,21.1,21.1
			C78.5,62.1,69,71.5,57.4,71.5z M57.4,33.5c-9.3,0-16.9,7.6-16.9,16.9c0,9.3,7.6,16.9,16.9,16.9s16.9-7.6,16.9-16.9
			C74.3,41.1,66.7,33.5,57.4,33.5z"/>
	</g>
	<g id="XMLID_5_">
		<path id="XMLID_6_" class="st0" d="M13.5,71.5C7,71.5,1.8,66.3,1.8,59.8c0-6.4,5.2-11.7,11.7-11.7c6.4,0,11.7,5.2,11.7,11.7
			C25.2,66.3,19.9,71.5,13.5,71.5z M13.5,52.3c-4.2,0-7.5,3.4-7.5,7.5c0,4.2,3.4,7.5,7.5,7.5c4.2,0,7.5-3.4,7.5-7.5
			C21,55.6,17.7,52.3,13.5,52.3z"/>
	</g>
	<g id="XMLID_3_">
		<path id="XMLID_4_" class="st0" d="M23.4,30.9c-1.1,0-2.1-0.9-2.1-2.1V18c0-1.1,0.9-2.1,2.1-2.1c1.1,0,2.1,0.9,2.1,2.1v10.9
			C25.4,30,24.5,30.9,23.4,30.9z"/>
	</g>
</g>
</svg>
